<svg id="Syntra" xmlns="http://www.w3.org/2000/svg" viewBox="0 0 495.5 249.9"><style>.st0{fill:#ff3521}.st1{fill:url(#SVGID_1_)}</style><g id="Cirkels"><path class="st0" d="M16.2 183c-3.3 0-6.4-2.1-7.6-5.4-5.8-16.7-8.7-34.2-8.7-52C0 77.9 21.1 33.2 58 2.8 61.4 0 66.5.5 69.3 3.9s2.3 8.5-1.1 11.3C35 42.5 16 82.7 16 125.6c0 16 2.6 31.7 7.8 46.7 1.4 4.2-.8 8.7-4.9 10.2-.9.3-1.8.5-2.7.5z"/><linearGradient id="SVGID_1_" gradientUnits="userSpaceOnUse" x1="55.179" y1="34.071" x2="167.571" y2="228.74" gradientTransform="matrix(1 0 0 -1 0 248.452)"><stop offset="0" stop-color="#ff3521"/><stop offset=".182" stop-color="#f12e1d"/><stop offset=".525" stop-color="#cd1d12"/><stop offset=".987" stop-color="#940101"/><stop offset="1" stop-color="#920000"/></linearGradient><path class="st1" d="M126.2 249.9c-.7 0-1.4-.1-2.2-.3-55.2-15.6-93.8-66.6-93.8-124 0-29.2 10-57.8 28.3-80.5C76.4 22.7 101.6 6.8 129.4.2c4.3-1 8.6 1.6 9.6 5.9s-1.6 8.6-5.9 9.6C81.9 27.9 46.2 73 46.2 125.6c0 50.3 33.8 95 82.2 108.6 4.3 1.2 6.7 5.6 5.5 9.9-1 3.5-4.2 5.8-7.7 5.8z"/><path class="st0" d="M159 224.5c-54.5 0-98.9-44.4-98.9-98.9 0-21.7 6.9-42.3 20-59.6 2.7-3.5 7.7-4.2 11.2-1.6 3.5 2.7 4.2 7.7 1.6 11.2-11 14.5-16.7 31.8-16.7 50 0 45.7 37.2 82.9 82.9 82.9 29.9 0 57.5-16.2 72.2-42.2 2.2-3.8 7.1-5.2 10.9-3 3.8 2.2 5.2 7.1 3 10.9-17.5 31-50.5 50.3-86.2 50.3z"/></g><path d="M261.7 62.7c-3.8 0-6.8 3-6.8 6.8v43l-22.2-46c-1.6-2.9-4.5-4.3-7.6-3.6-3.2.7-5.2 3.3-5.2 6.6V142c0 3.8 3 6.8 6.8 6.8s6.8-3 6.8-6.8V99.2l22.2 45.8c1.1 2.4 3.5 3.9 6.1 3.9 0 0 6.8.2 6.8-6.8V69.5c-.1-3.8-3.1-6.8-6.9-6.8m-132 27.5c-1.7-1.7-2.5-3.9-2.3-6.3.5-8 11.2-10.6 15.3-3.5 1.8 3.2 5.9 4.4 9.2 2.5 9.7-7.2-3.8-18.3-12-19.8-20.8-4-34.9 21.3-20 36.6l20 20.5c1.9 2 2.7 4.2 2.4 6.9-.4 3-1.5 5-3.4 6.3-2.1 1.6-4.5 2.2-7.1 1.7-2.6-.6-4.6-2-5.9-4.3-5-7.6-16.2-1-11.7 6.8 11 19 39.9 12.3 41.7-9.6.5-6.4-1.8-12.7-6.3-17.4l-19.9-20.4zm77.5-26.8c-3.2-1.8-7.5-.2-9.1 3.1l-11.5 22.9-11.4-22.9c-1.5-3.3-5.9-4.8-9-3.1-3.3 1.6-4.8 5.9-3.1 9.2l16.8 33.5v36c0 3.8 3 6.8 6.8 6.8s6.8-3 6.8-6.8v-36l16.8-33.5c1.7-3.4.3-7.5-3.1-9.2m109.6-.8h-32.5c-3.8 0-6.8 3-6.8 6.8s3 6.8 6.8 6.8h9.5V142c0 3.8 3 6.8 6.8 6.8s6.8-3 6.8-6.8V76.2h9.5c3.8 0 6.8-3 6.8-6.8-.2-3.8-3.1-6.8-6.9-6.8zm99.5 55.2h-12.5L410 95l6.3 22.8zm20.3 22.4l-20-72.5c-1.4-6.6-11.6-6.6-13 0l-20 72.5c-1 3.7 1 7.3 4.7 8.3 3.5 1 7.3-1 8.3-4.6l3.5-12.6h20.1l3.5 12.6c1 3.6 4.6 5.6 8.3 4.7 3.6-1.1 5.6-4.7 4.6-8.4m-74.2-55.8V92c0 4.5-3.7 8.2-8.2 8.2H346v-24h8.2c4.5 0 8.2 3.7 8.2 8.2m2.5 26.6c6.8-3.8 11.1-11 11.1-19v-7.6c0-12-9.8-21.8-21.8-21.8h-15c-3.8 0-6.8 3-6.8 6.8V142c.2 9 13.3 9 13.5 0v-28.2h5.4l11.5 30.7c3.6 8.3 15.8 3.5 12.7-4.8L364.9 111z" id="Syntra_1_"/><g id="PXL_1_"><path d="M461.4 17.5c-18.8 0-34.1 15.3-34.1 34.1s15.3 34.1 34.1 34.1 34.1-15.3 34.1-34.1-15.3-34.1-34.1-34.1zm-3.9 23.2l2.2 3.9-3.6 5.2-6.4-9.1h7.8zM441.7 56v6.6H435V40.7h12.6l6.5 9.6c-.8 3.9-4.1 5.7-8.4 5.7h-4zm22.5 6.7l-3.7-6.5-3.9 6.5h-7.9l15.5-21.9h7.4l-7 10.3 7.8 11.6h-8.2zm10.4 0l-2.6-3.8V40.7h6.8V57h9.7v5.6h-13.9z"/><path d="M445 45.7c-.5 0-.9.2-1.2.5l-.3.3-.3-.3c-.3-.3-.8-.5-1.3-.5-1.5.1-2.1 2.1-1 3.1l2 2c.2.2.4.3.6.3.2 0 .5-.1.6-.3l2-2c1-1.1.4-3.1-1.1-3.1zm.3 2.2l-1.9 1.9-1.9-1.9c-.4-.4-.2-1.2.4-1.2.2 0 .3.1.4.2l1.1 1.1 1.1-1.1c.2-.2.6-.2.8 0 .3.3.3.8 0 1z"/></g></svg>